<svg xmlns="http://www.w3.org/2000/svg" width="174" height="39" fill="none"><path fill="#55B02E" d="M16 26.8a10.5 10.5 0 0 0-10.5 1.7l-.8.7-.3.3.6.5.1.1.4.3.4.3.4-.3.3-.3a9 9 0 0 1 9-1.6 11 11 0 0 0 8.2-.3l.3-.2v-.1l1-1.2 1.2-2-2 1.2c-3 1.6-5.6 1.9-8.3 1ZM7.5 20c1.7-.3 3.5-.3 5.3.4 2 .7 7.1 1.8 12.8-3.4l1-.9.3-.3-.2-.3-.3-.9-.3-.9-.6.7-.3.3c-2.8 2.8-7 5.6-11.8 3.9-2.2-.8-4.4-1-6.5-.4a13 13 0 0 0-5.3 3.1l-1 1H.5l-.2.3v.2c.1.3.3.6.3 1l.4 1 .6-.9.3-.3c1.3-1.1 3-2.8 5.6-3.5Z"/><path fill="#55B02E" d="M1.5 19c1.4-1.5 3-2.5 4.8-3 1.7-.4 3.5-.3 5.3.4 5.6 2 10.4-1.3 12.5-3.1l.8-.9.3-.2-.2-.4-.5-.7-.4-.5-.4.5-.3.2c-2.6 2.5-6.6 5-11.2 3.3A10.5 10.5 0 0 0 1.9 16L.6 17.1l-.3.3-.1.1v.2L0 19 0 20.5l1-1 .5-.5ZM17.8 31v.4-.4c-.1 0-.3 0-.5-.2a10.5 10.5 0 0 0-7.7.1l-1.5.7-.4.2 1.3.4 1 .4h.4l.6-.2.4-.1c1.5-.4 3-.4 4.8.2.2 0 .3 0 .5.2h.5c.5-.1 1-.2 1.3-.4l1.8-.6-1.8-.5-.7-.2ZM27.4 18.2l-1 .9-.3.4c-2.6 2.4-6.7 5-11.3 3.3-2.2-.8-4.4-1-6.5-.4-1.9.6-3.6 1.5-5.2 3l-.8 1-.2.2.2.4.4.7.4.5.4-.5.3-.3c1.5-1.6 3.1-2.6 5-3 1.6-.5 3.4-.5 5.3.2 1.5.6 3.1.8 4.7.6 2.9-.3 5.8-2 7.9-3.7l.3-.4.2-.1v-.2l.1-1.2v-1.4Z"/><path fill="#55B02E" d="m3.7 12.4-.2-.3.2.3L5 12c1.7-.4 3.5-.4 5.3.3 1.2.5 2.4.6 3.7.6 2.6 0 5.2-.9 7.6-2.7l1-.7.3-.3-.6-.4-.7-.5-.4-.3-.3.3-.3.2c-3.3 2.5-6.6 3.2-9.7 2a10.4 10.4 0 0 0-7.3-.1h-.1l-.2.2-.2.2-.8 1-1.1 1.8 1.9-1 .7-.2Z"/><path fill="#55B02E" d="M8.8 8.2H9c.8.4 2 .7 3.6.7s3.2-.4 4.7-1l2-1-1.3-.4-1.2-.3h-.4l-.5.3a9 9 0 0 1-6.1.2l-.2-.1h-.2l-1.1.5-1.5.6 1.5.5h.5Z"/><path fill="#fff" d="M40.5 30V18.5h-2.7v-2.6h3.7l-1 .9v-2.2c0-1.8.4-3 1.3-4 .9-.9 2.2-1.3 3.9-1.3H47l1.2.4v2.7l-.9-.2a6 6 0 0 0-1 0c-.7 0-1.3.1-1.7.6-.4.4-.7 1-.7 2v1.7l-.5-.6h9.9V30h-3.5V18.5H44V30h-3.5Zm9-16.8V9.8h4v3.4h-4ZM57.2 30V19.4a28.3 28.3 0 0 0-.2-3.5h3.3l.3 2.8h-.3a5 5 0 0 1 2-2.3c.9-.5 1.9-.8 3-.8 1.7 0 3 .4 3.8 1.4.8 1 1.2 2.4 1.2 4.3V30h-3.5v-8.5c0-1.1-.2-2-.6-2.4-.5-.5-1.1-.8-2-.8-1 0-2 .4-2.6 1-.6.7-1 1.6-1 2.7v8h-3.4Zm22.3.3a6 6 0 0 1-3.2-.9A6 6 0 0 1 74 27a9.1 9.1 0 0 1-.8-4A9 9 0 0 1 74 19a5.8 5.8 0 0 1 5.4-3.4c1.2 0 2.2.3 3.1.9 1 .6 1.6 1.3 1.9 2.3H84l.3-3h3.3a593.5 593.5 0 0 0-.2 3.6V30H84v-3h.3c-.3 1-.9 1.8-1.8 2.4-.9.6-2 .9-3 .9Zm1-2.7c1 0 2-.4 2.6-1.2.7-.7 1-2 1-3.5 0-1.6-.3-2.7-1-3.5a3.4 3.4 0 0 0-2.6-1.1c-1.1 0-2 .4-2.7 1.1-.6.8-1 2-1 3.5 0 1.6.3 2.8 1 3.5.7.8 1.6 1.2 2.7 1.2Zm11 2.4V19.4a28.3 28.3 0 0 0-.3-3.5h3.4l.3 2.8h-.4a5 5 0 0 1 2-2.3c.9-.5 1.9-.8 3-.8 1.7 0 3 .4 3.8 1.4.9 1 1.3 2.4 1.3 4.3V30H101v-8.5c0-1.1-.3-2-.7-2.4-.4-.5-1-.8-2-.8s-1.9.4-2.5 1c-.7.7-1 1.6-1 2.7v8h-3.5Zm23.3.3a8 8 0 0 1-3.9-1c-1-.5-1.9-1.4-2.5-2.5a8.3 8.3 0 0 1-.9-4 8 8 0 0 1 1-3.9c.5-1 1.4-1.9 2.5-2.5a8 8 0 0 1 3.8-.8c1 0 1.8.1 2.7.4.9.3 1.6.7 2.2 1.3l-1 2.4c-.6-.5-1.2-.8-1.8-1a5 5 0 0 0-1.8-.4c-1.3 0-2.2.4-3 1.2-.6.8-1 1.9-1 3.4s.4 2.6 1 3.4c.8.8 1.7 1.2 3 1.2.6 0 1.2 0 1.8-.3.6-.2 1.2-.6 1.7-1l1 2.4a6 6 0 0 1-2.1 1.2c-1 .3-1.8.5-2.7.5Zm14.2 0c-2.4 0-4.3-.7-5.6-2a7.2 7.2 0 0 1-2-5.4c0-1.4.3-2.7.8-3.8a6.4 6.4 0 0 1 6-3.5c1.4 0 2.6.3 3.5.8 1 .6 1.6 1.4 2 2.5.6 1 .8 2.3.8 3.7v.9h-10.3v-1.9h7.8l-.5.4c0-1.3-.3-2.3-.8-3-.6-.7-1.3-1-2.4-1-1.1 0-2 .4-2.7 1.2-.6.8-.9 2-.9 3.5v.3c0 1.6.4 2.7 1.1 3.5.8.7 1.9 1 3.2 1 .8 0 1.6 0 2.3-.2.7-.2 1.4-.6 2-1l1 2.3c-.6.5-1.4 1-2.4 1.2-1 .3-1.9.5-3 .5Zm8-.3v-3.9h4V30h-4Zm12.8.3a6 6 0 0 1-3.3-.9 6 6 0 0 1-2.1-2.5 9.1 9.1 0 0 1-.8-4 9 9 0 0 1 .8-3.9 5.8 5.8 0 0 1 5.4-3.4c1.2 0 2.2.3 3.1.9 1 .6 1.5 1.3 1.8 2.3h-.3l.3-3h3.4a593.5 593.5 0 0 0-.2 3.6V30h-3.5v-3h.3c-.3 1-.9 1.8-1.8 2.4-1 .6-2 .9-3.1.9Zm1-2.7c1 0 2-.4 2.6-1.2.7-.7 1-2 1-3.5 0-1.6-.3-2.7-1-3.5a3.4 3.4 0 0 0-2.6-1.1c-1.1 0-2 .4-2.7 1.1-.7.8-1 2-1 3.5 0 1.6.3 2.8 1 3.5.6.8 1.5 1.2 2.7 1.2Zm10.9 2.4V15.9h3.5V30h-3.5Zm-.2-16.8V9.8h3.9v3.4h-4Z"/></svg>